<mxfile host="Electron" modified="2024-07-06T17:24:33.399Z" agent="Mozilla/5.0 (X11; Linux x86_64) AppleWebKit/537.36 (KHTML, like Gecko) draw.io/24.5.3 Chrome/124.0.6367.207 Electron/30.0.6 Safari/537.36" etag="sfHYupq3rEGQENpOwLPY" version="24.5.3" type="device">
  <diagram name="Page-1" id="ZcRAXSWJTWcisyccbfvs">
    <mxGraphModel dx="128" dy="-1121" grid="1" gridSize="1" guides="1" tooltips="1" connect="1" arrows="1" fold="1" page="0" pageScale="1" pageWidth="827" pageHeight="1169" math="0" shadow="0">
      <root>
        <mxCell id="0" />
        <mxCell id="1" parent="0" />
        <mxCell id="RPMx26uoqZYTiA5Tm64J-34" value="" style="rounded=0;whiteSpace=wrap;html=1;strokeColor=none;fillColor=none;" parent="1" vertex="1">
          <mxGeometry x="90" y="1518" width="180" height="180" as="geometry" />
        </mxCell>
        <mxCell id="RPMx26uoqZYTiA5Tm64J-7" value="" style="endArrow=none;html=1;rounded=0;strokeWidth=6;strokeColor=#3EC1F0;" parent="1" edge="1">
          <mxGeometry width="50" height="50" relative="1" as="geometry">
            <mxPoint x="160" y="1620" as="sourcePoint" />
            <mxPoint x="200" y="1620" as="targetPoint" />
          </mxGeometry>
        </mxCell>
        <mxCell id="RPMx26uoqZYTiA5Tm64J-8" value="" style="endArrow=none;html=1;rounded=0;strokeWidth=6;strokeColor=#3EC1F0;" parent="1" edge="1">
          <mxGeometry width="50" height="50" relative="1" as="geometry">
            <mxPoint x="160" y="1590" as="sourcePoint" />
            <mxPoint x="200" y="1590" as="targetPoint" />
          </mxGeometry>
        </mxCell>
        <mxCell id="RPMx26uoqZYTiA5Tm64J-9" value="" style="endArrow=none;html=1;rounded=0;strokeWidth=6;strokeColor=#3EC1F0;" parent="1" edge="1">
          <mxGeometry width="50" height="50" relative="1" as="geometry">
            <mxPoint x="160" y="1570" as="sourcePoint" />
            <mxPoint x="200" y="1570" as="targetPoint" />
          </mxGeometry>
        </mxCell>
        <mxCell id="RPMx26uoqZYTiA5Tm64J-6" value="" style="endArrow=none;html=1;rounded=0;strokeWidth=6;strokeColor=#3EC1F0;" parent="1" edge="1">
          <mxGeometry width="50" height="50" relative="1" as="geometry">
            <mxPoint x="160" y="1540" as="sourcePoint" />
            <mxPoint x="200" y="1540" as="targetPoint" />
          </mxGeometry>
        </mxCell>
        <mxCell id="RPMx26uoqZYTiA5Tm64J-1" value="" style="endArrow=none;html=1;rounded=0;strokeWidth=10;strokeColor=#FFFFFF;" parent="1" edge="1">
          <mxGeometry width="50" height="50" relative="1" as="geometry">
            <mxPoint x="180" y="1630" as="sourcePoint" />
            <mxPoint x="180" y="1530" as="targetPoint" />
          </mxGeometry>
        </mxCell>
        <mxCell id="RPMx26uoqZYTiA5Tm64J-2" value="" style="endArrow=none;html=1;rounded=0;strokeWidth=6;strokeColor=#F0A818;" parent="1" edge="1">
          <mxGeometry width="50" height="50" relative="1" as="geometry">
            <mxPoint x="140" y="1550" as="sourcePoint" />
            <mxPoint x="220" y="1550" as="targetPoint" />
          </mxGeometry>
        </mxCell>
        <mxCell id="RPMx26uoqZYTiA5Tm64J-5" value="" style="endArrow=none;html=1;rounded=0;strokeWidth=6;strokeColor=#F0A818;" parent="1" edge="1">
          <mxGeometry width="50" height="50" relative="1" as="geometry">
            <mxPoint x="140" y="1610" as="sourcePoint" />
            <mxPoint x="220" y="1610" as="targetPoint" />
          </mxGeometry>
        </mxCell>
        <mxCell id="RPMx26uoqZYTiA5Tm64J-10" value="" style="endArrow=none;html=1;rounded=0;strokeWidth=6;strokeColor=#F0A818;" parent="1" edge="1">
          <mxGeometry width="50" height="50" relative="1" as="geometry">
            <mxPoint x="140" y="1580" as="sourcePoint" />
            <mxPoint x="220" y="1580" as="targetPoint" />
          </mxGeometry>
        </mxCell>
        <mxCell id="RPMx26uoqZYTiA5Tm64J-11" value="" style="shape=trapezoid;perimeter=trapezoidPerimeter;whiteSpace=wrap;html=1;fixedSize=1;strokeWidth=6;fillColor=none;size=20;strokeColor=#ffffff;" parent="1" vertex="1">
          <mxGeometry x="121" y="1630" width="118" height="40" as="geometry" />
        </mxCell>
        <mxCell id="RPMx26uoqZYTiA5Tm64J-14" value="" style="endArrow=none;html=1;rounded=0;exitX=0.5;exitY=1;exitDx=0;exitDy=0;entryX=0.5;entryY=0;entryDx=0;entryDy=0;strokeWidth=10;strokeColor=#FFFFFF;" parent="1" source="RPMx26uoqZYTiA5Tm64J-11" target="RPMx26uoqZYTiA5Tm64J-11" edge="1">
          <mxGeometry width="50" height="50" relative="1" as="geometry">
            <mxPoint x="160" y="1640" as="sourcePoint" />
            <mxPoint x="210" y="1590" as="targetPoint" />
          </mxGeometry>
        </mxCell>
        <mxCell id="RPMx26uoqZYTiA5Tm64J-18" value="" style="ellipse;whiteSpace=wrap;html=1;fillColor=none;strokeColor=#1F5EF0;strokeWidth=4;" parent="1" vertex="1">
          <mxGeometry x="190" y="1639" width="22" height="22" as="geometry" />
        </mxCell>
        <mxCell id="RPMx26uoqZYTiA5Tm64J-29" value="" style="endArrow=none;html=1;rounded=0;strokeWidth=10;strokeColor=#6CF070;" parent="1" edge="1">
          <mxGeometry width="50" height="50" relative="1" as="geometry">
            <mxPoint x="166" y="1663" as="sourcePoint" />
            <mxPoint x="166" y="1637" as="targetPoint" />
          </mxGeometry>
        </mxCell>
        <mxCell id="RPMx26uoqZYTiA5Tm64J-30" value="" style="endArrow=none;html=1;rounded=0;strokeWidth=10;strokeColor=#6CF070;" parent="1" edge="1">
          <mxGeometry width="50" height="50" relative="1" as="geometry">
            <mxPoint x="152" y="1663" as="sourcePoint" />
            <mxPoint x="152" y="1637" as="targetPoint" />
          </mxGeometry>
        </mxCell>
        <mxCell id="RPMx26uoqZYTiA5Tm64J-31" value="" style="verticalLabelPosition=bottom;verticalAlign=top;html=1;shape=mxgraph.basic.orthogonal_triangle;strokeColor=none;fillColor=#FFFFFF;" parent="1" vertex="1">
          <mxGeometry x="217" y="1632" width="18" height="36" as="geometry" />
        </mxCell>
        <mxCell id="RPMx26uoqZYTiA5Tm64J-32" value="" style="verticalLabelPosition=bottom;verticalAlign=top;html=1;shape=mxgraph.basic.orthogonal_triangle;strokeColor=none;fillColor=#FFFFFF;rotation=-90;" parent="1" vertex="1">
          <mxGeometry x="116" y="1640" width="36" height="18" as="geometry" />
        </mxCell>
        <mxCell id="RPMx26uoqZYTiA5Tm64J-33" value="" style="rounded=0;whiteSpace=wrap;html=1;fillColor=#FFFFFF;strokeColor=none;" parent="1" vertex="1">
          <mxGeometry x="116" y="1673" width="128" height="5" as="geometry" />
        </mxCell>
      </root>
    </mxGraphModel>
  </diagram>
</mxfile>
